#!OML:ASF E:/inclinewalkrobotboard/Project1/Captureday1/Session1/subject1.ASF
:FULLY-SPECIFIED
:DEGREES
188
root 0 0 0 1.540003895105436 -3.86859731228488 1.8518153113508826
lowerback 12.239211841838554 0.9610151823752613 0.025260180780887764
upperback -4.446788396111779 1.2166800310485106 -0.6310060151389146
thorax -11.735511344322326 0.5627813779263897 -0.9372366139292132
lowerneck -6.067683674317062 1.8661073752261406 4.773928806017914
upperneck 18.110744958851445 3.49896741596619 -8.585426373705284
head 6.648482489977882 1.307724287527504 -3.2799567062631
rclavicle 2.162657468744536E-15 -7.079789697517306E-16
rhumerus 21.087701109803106 15.626777288115944 -47.80743653467735
rradius 73.27597052922744
rwrist 26.694279944051118
rhand -34.615035353337234 -57.18081000487448
rfingers 7.1250200000000286
rthumb -7.71735982352304 -87.14179677760615
lclavicle -7.383369113349055E-16 -7.48366249981207E-16
lhumerus 23.168677656692225 -14.4519219324434 44.74491152370859
lradius 71.82645186218048
lwrist -22.25459535489076
lhand -45.753268536565955 -71.95527710433464
lfingers 7.1250200000000286
lthumb -18.507347704606623 -42.73867084499804
rfemur -24.970986160883363 -1.952906124238086 17.776027676996183
rtibia 50.66748560967109
rfoot -34.25769400079988 -18.286890724070766
rtoes -21.87355288511435
lfemur -28.083348160291685 2.1425359148787866 -17.152140571403827
ltibia 50.864335429751385
lfoot -35.54330609603375 -0.2788329468995676
ltoes -22.09617352993692
189
root 0 0 0 1.5399042324567995 -3.868206753120318 1.8519602675496643
lowerback 12.239328798025126 0.9608262894446766 0.025108125801414083
upperback -4.446813468097001 1.2164239408629363 -0.630982222062532
thorax -11.735625312523492 0.5626582295922502 -0.937102898235088
lowerneck -6.06752489028112 1.8661297930955383 4.773982238657505
upperneck 18.110448985700334 3.4990152709262183 -8.585475094048883
head 6.64836132186894 1.3077504855204753 -3.27997500360636
rclavicle 2.1605497077095156E-15 -7.085477697952606E-16
rhumerus 21.087905292224676 15.626942785937183 -47.807409426609055
rradius 73.27616578882565
rwrist 26.694221548256152
rhand -34.615112328983464 -57.180833093003265
rfingers 7.1250200000000286
rthumb -7.7174464821024795 -87.14196065541461
lclavicle -7.40264593786704E-16 -7.491938354449094E-16
lhumerus 23.168957916044064 -14.45240398725786 44.74496006948938
lradius 71.82691518789608
lwrist -22.254379039380886
lhand -45.75342230484571 -71.95536707979822
lfingers 7.1250200000000286
lthumb -18.507495809344498 -42.738749488047645
rfemur -24.970745384287234 -1.9528113573878993 17.775937504846706
rtibia 50.666434844937434
rfoot -34.25762447263912 -18.28619132903885
rtoes -21.875687931817694
lfemur -28.08152618078419 2.142709389291289 -17.15256013161578
ltibia 50.864520199122765
lfoot -35.54248928176884 -0.2797731725752759
ltoes -22.096670006115886
190
root 0 0 0 1.5398277437161885 -3.867985009450388 1.85194432890213
lowerback 12.23942104592597 0.9607143666583902 0.025103140516980038
upperback -4.446824518867815 1.2162843737469706 -0.6309327479851009
thorax -11.735698615234607 0.562588905387434 -0.9370359672059299
lowerneck -6.067419174473741 1.866158129347155 4.774025274155498
upperneck 18.110292228886422 3.4990659778499706 -8.585538167880747
head 6.648292326378492 1.307772838410369 -3.2799969423023425
rclavicle 2.1590582345866988E-15 -7.098479953304027E-16
rhumerus 21.087491593537194 15.62624109984389 -47.806767313253545
rradius 73.27584034267431
rwrist 26.694924672319495
rhand -34.615152555114754 -57.18124386359432
rfingers 7.1250200000000286
rthumb -7.717478551337116 -87.14234478371309
lclavicle -7.412346229644255E-16 -7.503929284245079E-16
lhumerus 23.169226651093425 -14.452676516953327 44.74496530658223
lradius 71.82714655084385
lwrist -22.25428869522993
lhand -45.753499475310626 -71.95551499004105
lfingers 7.1250200000000286
lthumb -18.507564979827272 -42.73886163431753
rfemur -24.97137325622256 -1.952442998266494 17.776209114087276
rtibia 50.664250734753544
rfoot -34.25830797098399 -18.28644138390913
rtoes -21.875661083683394
lfemur -28.080718828713685 2.14317803118304 -17.152636150266446
ltibia 50.86780951920238
lfoot -35.540500571079384 -0.28162812700978
ltoes -22.09698059263706
191
root 0 0 0 1.5400596848087638 -3.869713119341016 1.8518817389543472
lowerback 12.238415415692254 0.9617927742126509 0.025290334159000283
upperback -4.446761095950782 1.2176354459905978 -0.6313516043816897
thorax -11.734976680427781 0.5632594349499387 -0.9376906181158964
lowerneck -6.0680524027170435 1.8658571758123743 4.773694062212599
upperneck 18.11169287947618 3.498491701421174 -8.584926524770928
head 6.648834303463843 1.307522732084709 -3.2797953127209
rclavicle 2.1627581941290893E-15 -7.092875930039592E-16
rhumerus 21.08624844451227 15.626006465003746 -47.80807172498491
rradius 73.27544338278656
rwrist 26.694023375511513
rhand -34.61467369960379 -57.177879832957125
rfingers 7.1250200000000286
rthumb -7.716596118738316 -87.13956849083237
lclavicle -7.389441851564662E-16 -7.330151685530661E-16
lhumerus 23.164441837319977 -14.447884372225483 44.74465761733087
lradius 71.82344711274715
lwrist -22.25595336870831
lhand -45.75180143984994 -71.95400473175036
lfingers 7.1250200000000286
lthumb -18.50579707848902 -42.73742125877651
rfemur -24.972206505900598 -1.9512816543624236 17.774475289371118
rtibia 50.665686349989976
rfoot -34.252368951132354 -18.290305486828075
rtoes -21.863856866662076
lfemur -28.079674484979797 2.145813726681464 -17.151048009349882
ltibia 50.87360232573731
lfoot -35.52191404424202 -0.2855678430122728
ltoes -22.08784994378758
192
root 0 0 0 1.5399516383852783 -3.8685610809702595 1.8518364650422399
lowerback 12.239239456970962 0.9610002017711977 0.025254825876774023
upperback -4.446800230181636 1.2166596747434881 -0.6310098001718712
thorax -11.735543842970884 0.5627717089696627 -0.9372344610862948
lowerneck -6.067644309201271 1.8661168907309953 4.7739515135807205
upperneck 18.110773992115497 3.498982699785545 -8.585462439667456
head 6.648485270148421 1.307730227565068 -3.279970931680114
rclavicle 2.1623971399488514E-15 -7.082747366149678E-16
rhumerus 21.087458664409915 15.626434107488736 -47.80719005510339
rradius 73.27576978649408
rwrist 26.69454214080058
rhand -34.61503287649025 -57.180883107869136
rfingers 7.1250200000000286
rthumb -7.717356391303962 -87.14185476926687
lclavicle -7.384811698764446E-16 -7.485436336166208E-16
lhumerus 23.168586002447206 -14.45174247105208 44.74485578220734
lradius 71.82633796398032
lwrist -22.25470832399847
lhand -45.75326534133495 -71.9554298647612
lfingers 7.1250200000000286
lthumb -18.507343107940056 -42.73882622000225
rfemur -24.97153402603892 -1.9536768404748361 17.774974932943625
rtibia 50.672223288068736
rfoot -34.25456400163526 -18.2865452564372
rtoes -21.872183873667158
lfemur -28.083265759546784 2.1432411270921587 -17.152586187651558
ltibia 50.868213668270386
lfoot -35.54127099104808 -0.2804076046236257
ltoes -22.09467448464474
